<svg id="Layer_1" data-name="Layer 1" xmlns="http://www.w3.org/2000/svg" viewBox="0 0 568 496"><defs><style>.cls-1{fill:#780e9b;}.cls-2{fill:#c11194;}.cls-3{fill:#340547;}.cls-4{fill:#770e61;}</style></defs><title>Asta</title><polygon class="cls-1" points="0.03 247.96 0.05 247.97 29.83 230.75 0.03 247.96"/><polygon class="cls-1" points="156 248 243 301 429 199.67 429.02 0.36 429 0.37 429 96.95 156 248"/><polygon class="cls-1" points="428.98 301 359 347 428.97 390.52 428.98 301 428.98 301"/><path class="cls-2" d="M533,405l66-82,21.39,26L635,314.5l-138-162V640.41L620.39,349,533,553.83Zm0-148,45,46-45,46Z" transform="translate(-67 -152)"/><polygon class="cls-3" points="428.98 301 428.98 301 429.5 199.39 429 199.67 243 301 156 248 429 96.95 429 0.37 429 0 29.83 230.75 0.05 247.97 0 248 429 496 429.5 390.85 428.97 390.52 359 347 428.98 301"/><polygon class="cls-4" points="466 105 466 197 511 151 466 105"/><polygon class="cls-4" points="553.39 197 532 171 466 253 466 401.83 553.39 197.01 553.39 197 553.39 197"/></svg>